<?xml version="1.0" standalone="no"?>
<!DOCTYPE svg PUBLIC "-//W3C//DTD SVG 20010904//EN"
 "http://www.w3.org/TR/2001/REC-SVG-20010904/DTD/svg10.dtd">
<svg version="1.0" xmlns="http://www.w3.org/2000/svg"
 width="478.000000pt" height="443.000000pt" viewBox="0 0 478.000000 443.000000"
 preserveAspectRatio="xMidYMid meet">

<g transform="translate(0.000000,443.000000) scale(0.100000,-0.100000)"
fill="#000000" stroke="none">
<path d="M2460 3463 c-46 -18 -50 -31 -50 -162 0 -152 8 -171 73 -171 76 0 87
22 87 173 0 95 -3 118 -17 136 -19 22 -67 34 -93 24z m40 -168 c0 -97 -9 -129
-24 -89 -8 21 -8 179 1 187 18 19 23 -2 23 -98z"/>
<path d="M2993 3458 c-27 -13 -47 -69 -37 -100 3 -13 26 -44 50 -70 29 -31 44
-56 44 -73 0 -36 -23 -27 -30 11 -4 24 -10 29 -35 29 -29 0 -30 -1 -28 -44 3
-58 25 -81 79 -81 50 0 71 17 80 65 9 52 -2 82 -51 134 -44 47 -56 71 -35 71
6 0 13 -7 16 -15 4 -9 19 -15 40 -15 32 0 34 2 28 28 -13 55 -73 85 -121 60z"/>
<path d="M3174 3459 c-25 -13 -44 -49 -44 -84 0 -14 20 -46 50 -81 49 -56 66
-104 36 -104 -9 0 -16 12 -18 33 -3 28 -6 32 -33 32 -27 0 -30 -3 -33 -36 -5
-54 28 -89 82 -89 49 0 70 18 81 67 9 47 -9 93 -55 138 -38 38 -51 65 -30 65
6 0 10 -7 10 -15 0 -10 11 -15 35 -15 32 0 35 3 35 28 0 50 -67 85 -116 61z"/>
<path d="M2600 3295 l0 -165 60 0 c93 0 100 11 100 163 0 158 -5 167 -96 167
l-64 0 0 -165z m90 0 c0 -63 -4 -105 -10 -105 -6 0 -10 42 -10 105 0 63 4 105
10 105 6 0 10 -42 10 -105z"/>
<path d="M2780 3443 c0 -10 11 -61 25 -113 14 -52 25 -119 25 -147 0 -52 1
-53 30 -53 29 0 30 1 30 49 0 27 11 97 25 155 14 58 25 111 25 117 0 6 -14 9
-32 7 -29 -3 -33 -7 -36 -35 -2 -18 -7 -33 -12 -33 -5 0 -10 15 -12 33 -3 28
-7 32 -35 35 -26 3 -33 0 -33 -15z"/>
<path d="M3320 3295 l0 -165 71 0 70 0 -3 33 c-3 28 -7 32 -35 35 -30 3 -33 6
-33 38 0 31 2 34 30 34 27 0 30 3 30 30 0 27 -3 30 -30 30 -28 0 -30 3 -30 35
0 32 2 35 30 35 27 0 30 3 30 30 l0 30 -65 0 -65 0 0 -165z"/>
<path d="M3470 3448 c0 -7 11 -60 25 -118 14 -58 25 -126 25 -152 0 -47 1 -48
30 -48 30 0 30 0 30 58 0 31 11 100 25 152 31 120 31 120 -5 120 -17 0 -32 -6
-34 -12 -3 -7 -8 -26 -12 -43 -6 -24 -8 -26 -11 -10 -12 64 -13 65 -43 65 -17
0 -30 -5 -30 -12z"/>
<path d="M1057 3378 c-19 -10 -21 -8 90 -135 l52 -60 -59 -41 c-63 -45 -78
-48 -125 -28 -21 9 -37 10 -52 3 -32 -14 -29 -32 12 -63 l36 -27 -23 -24 -23
-25 35 4 c34 3 35 2 43 -45 8 -41 12 -48 30 -45 27 4 47 42 47 90 0 37 2 39
70 73 l70 35 11 -27 c6 -16 26 -68 44 -116 18 -49 36 -91 39 -94 12 -13 36 22
36 52 0 20 6 35 15 39 8 3 15 10 15 15 0 5 -7 16 -15 25 -21 21 -19 51 6 68
20 13 20 15 5 30 -9 9 -16 32 -16 51 0 32 5 37 60 66 64 35 91 58 121 106 25
39 24 54 -2 64 -42 15 -117 -6 -186 -53 -64 -43 -68 -44 -95 -30 -15 8 -28 21
-28 29 0 19 -19 30 -32 17 -16 -16 -49 -2 -59 25 -7 20 -14 24 -33 19 -14 -3
-35 -2 -48 3 -15 5 -31 5 -41 -1z"/>
<path d="M883 2931 c-33 -27 -28 -35 7 -14 17 9 30 21 30 25 0 13 -13 9 -37
-11z"/>
<path d="M780 2845 c-13 -14 -19 -25 -13 -25 5 0 20 11 33 25 13 14 19 25 13
25 -5 0 -20 -11 -33 -25z"/>
<path d="M1842 2859 c-473 -61 -866 -410 -989 -877 -34 -129 -43 -364 -19
-492 44 -233 146 -437 303 -600 213 -224 444 -338 750 -372 238 -26 515 40
728 173 102 63 253 202 324 297 224 298 292 717 175 1067 -70 209 -193 393
-354 529 -70 59 -166 126 -181 126 -3 0 -26 -28 -50 -62 l-44 -63 -3 91 -3 92
-67 25 c-184 67 -383 91 -570 66z m345 -102 c94 -20 157 -80 165 -158 3 -22
-1 -24 -37 -24 -31 0 -40 -4 -43 -19 -5 -23 23 -46 55 -46 31 0 47 -40 34 -87
-8 -29 -7 -37 10 -54 39 -39 129 -7 129 46 0 33 46 85 76 85 20 0 24 -5 24
-30 0 -49 30 -70 100 -70 51 0 65 -4 85 -25 46 -45 24 -87 -53 -100 -52 -8
-92 13 -92 49 0 33 -21 38 -97 26 -165 -27 -217 -103 -132 -195 36 -39 41 -49
35 -78 -4 -19 -15 -42 -26 -52 -40 -36 -14 -68 60 -77 22 -3 26 -9 30 -48 6
-46 24 -89 44 -102 19 -13 81 -9 102 7 26 19 44 19 60 -2 9 -13 26 -18 61 -18
42 0 48 -2 45 -20 -14 -80 -14 -97 3 -115 17 -19 17 -22 0 -76 -15 -48 -16
-63 -5 -112 11 -54 10 -63 -19 -151 -35 -105 -40 -175 -14 -203 26 -29 50 -21
82 26 31 45 76 86 93 86 6 0 -5 -26 -22 -57 -157 -280 -432 -477 -753 -538
-102 -19 -282 -19 -384 0 -419 79 -750 389 -860 802 -22 85 -26 119 -26 258
-1 132 3 175 21 248 35 141 110 304 181 397 18 22 20 23 27 7 3 -10 -3 -39
-15 -67 -22 -50 -28 -134 -11 -145 5 -3 21 12 35 35 14 22 27 40 29 40 2 0 1
-31 -2 -68 -4 -59 -1 -76 22 -123 18 -40 36 -61 63 -76 21 -12 58 -40 83 -64
25 -23 65 -51 90 -62 76 -34 79 -59 14 -123 -43 -41 -46 -48 -41 -81 7 -41 38
-79 73 -87 14 -4 26 -16 28 -29 3 -12 10 -49 17 -81 12 -63 43 -106 77 -106
36 0 43 -23 41 -142 -1 -104 1 -118 25 -170 15 -31 33 -91 40 -134 14 -79 30
-104 68 -104 25 0 54 50 83 145 14 44 38 99 54 123 16 23 32 61 36 83 6 35 14
45 59 74 90 58 116 97 116 178 0 39 6 61 19 79 42 53 35 122 -17 170 -40 38
-66 48 -131 52 -32 2 -73 11 -90 21 -31 15 -32 18 -26 60 l7 43 -52 30 c-28
16 -60 44 -71 61 -17 28 -23 31 -69 31 -27 0 -67 -7 -89 -16 -31 -12 -44 -13
-61 -4 -18 10 -30 9 -62 -6 -39 -17 -41 -17 -76 1 -30 17 -39 31 -57 83 -17
54 -26 66 -53 78 -27 11 -32 18 -32 47 0 23 8 41 26 58 15 13 34 43 44 65 29
67 35 66 114 -27 9 -10 25 -19 36 -19 17 0 18 5 13 48 -4 35 -1 59 12 85 25
52 86 105 132 112 82 13 83 14 83 45 0 17 9 39 19 49 17 17 26 18 53 10 78
-22 92 7 33 66 -31 30 -42 35 -84 35 -53 0 -83 -17 -104 -60 -11 -21 -20 -25
-54 -24 -23 0 -49 6 -57 14 -55 45 44 109 170 110 31 0 54 9 99 41 31 22 64
38 72 35 8 -3 21 -22 29 -41 8 -19 21 -35 30 -35 28 0 74 56 74 89 l0 31 58 0
c31 0 85 -6 119 -13z"/>
<path d="M4254 2775 c-7 -19 -14 -57 -14 -84 0 -45 -3 -52 -27 -64 -53 -27
-81 -29 -88 -7 -9 30 -49 35 -87 12 -49 -29 -87 -36 -94 -17 -14 36 -43 38
-91 6 -55 -37 -65 -38 -102 -10 -16 12 -34 18 -41 14 -6 -4 0 10 14 31 38 58
50 98 36 123 -6 12 -15 21 -20 21 -17 0 -49 -62 -62 -118 -10 -47 -16 -56 -51
-74 -40 -20 -129 -30 -143 -15 -4 4 2 17 14 29 18 18 23 19 37 8 20 -16 33 -4
19 18 -18 28 -41 25 -104 -14 l-60 -37 -19 24 c-13 17 -16 28 -9 36 10 12 3
33 -11 33 -18 0 -70 -62 -64 -78 18 -51 65 -65 127 -39 25 11 35 10 65 -6 38
-19 113 -17 154 4 14 8 22 7 31 -6 12 -16 15 -15 40 10 l27 27 25 -23 c22 -21
28 -22 66 -12 29 8 48 8 64 1 12 -6 31 -7 41 -3 10 4 32 8 48 10 17 1 39 5 51
9 14 4 26 1 34 -9 14 -17 46 -20 54 -6 3 5 14 7 24 4 10 -2 38 3 62 11 43 15
44 14 66 -10 14 -14 34 -24 52 -24 39 0 123 54 116 75 -8 19 -5 20 -61 -15
-52 -33 -75 -37 -93 -15 -9 11 -6 27 14 79 28 71 32 106 14 124 -21 21 -39 13
-54 -23z m-904 -166 c0 -5 -10 -9 -21 -9 -18 0 -19 2 -9 15 12 15 30 12 30 -6z"/>
<path d="M685 2760 c-27 -30 -12 -34 15 -5 13 14 19 25 13 25 -5 0 -18 -9 -28
-20z"/>
<path d="M601 2664 c-30 -38 -26 -55 4 -19 23 28 31 45 21 45 -3 0 -14 -12
-25 -26z"/>
<path d="M517 2550 c-10 -16 -14 -30 -10 -30 5 0 17 14 26 30 10 17 14 30 10
30 -5 0 -17 -13 -26 -30z"/>
<path d="M451 2444 c-17 -38 -6 -42 14 -5 8 17 12 31 7 31 -5 0 -14 -12 -21
-26z"/>
<path d="M395 2330 c-9 -18 -14 -34 -11 -37 2 -3 12 9 21 27 9 18 14 34 11 37
-2 3 -12 -9 -21 -27z"/>
<path d="M341 2201 c-8 -17 -11 -34 -8 -38 8 -7 29 46 24 60 -2 6 -9 -4 -16
-22z"/>
<path d="M307 2097 c-4 -10 -7 -28 -6 -40 0 -21 1 -21 10 2 5 14 8 32 7 40 -3
13 -5 13 -11 -2z"/>
<path d="M281 1970 c-1 -8 -4 -26 -7 -40 -5 -19 -4 -22 5 -14 7 6 11 24 8 40
-2 16 -5 22 -6 14z"/>
<path d="M260 1813 c0 -43 5 -41 13 5 4 18 2 32 -3 32 -6 0 -10 -16 -10 -37z"/>
<path d="M263 1680 c0 -25 2 -35 4 -22 2 12 2 32 0 45 -2 12 -4 2 -4 -23z"/>
<path d="M261 1573 c1 -10 5 -29 9 -43 7 -22 8 -21 9 12 1 20 -3 40 -9 43 -5
3 -10 -2 -9 -12z"/>
<path d="M285 1430 c4 -19 11 -39 16 -45 6 -6 7 4 3 25 -4 19 -11 40 -16 45
-7 7 -8 -2 -3 -25z"/>
<path d="M314 1305 c4 -16 12 -34 18 -40 7 -7 8 -1 4 20 -4 17 -12 35 -18 40
-7 7 -8 1 -4 -20z"/>
<path d="M362 1170 c5 -17 15 -33 21 -37 7 -4 8 0 3 13 -5 10 -11 27 -13 37
-3 9 -9 17 -14 17 -4 0 -3 -14 3 -30z"/>
<path d="M417 1045 c9 -19 19 -33 21 -30 7 7 -19 65 -29 65 -5 0 -1 -16 8 -35z"/>
<path d="M470 951 c0 -5 9 -19 20 -32 l21 -24 -16 33 c-15 31 -25 41 -25 23z"/>
<path d="M541 845 c-1 -5 8 -21 19 -35 11 -14 20 -20 20 -14 0 7 -9 22 -20 35
-10 13 -19 20 -19 14z"/>
<path d="M635 720 c16 -16 31 -28 33 -25 7 7 -39 55 -52 55 -5 0 3 -13 19 -30z"/>
<path d="M712 638 c2 -6 15 -18 29 -27 l24 -15 -24 27 c-26 29 -35 34 -29 15z"/>
<path d="M800 563 c0 -5 14 -19 30 -31 17 -13 30 -18 30 -13 0 5 -13 19 -30
31 -16 12 -30 17 -30 13z"/>
</g>
</svg>
