<svg width="34" height="27" viewBox="0 0 34 27" fill="none" xmlns="http://www.w3.org/2000/svg">
<rect x="0.47998" width="33.4258" height="4.08" rx="2.04" fill="#FFC43B"/>
<path d="M1.08948 9.46C1.08948 8.33334 2.00282 7.42 3.12948 7.42H26.4586C27.5853 7.42 28.4986 8.33334 28.4986 9.46C28.4986 10.5867 27.5853 11.5 26.4586 11.5H3.12948C2.00282 11.5 1.08948 10.5867 1.08948 9.46Z" fill="#FFC43B"/>
<rect x="1.46301" y="15" width="20.0555" height="4.08" rx="2.04" fill="#FFC43B"/>
<path d="M2.34778 24.54C2.34778 23.4133 3.26112 22.5 4.38778 22.5H13.6781C14.8047 22.5 15.7181 23.4133 15.7181 24.54C15.7181 25.6667 14.8047 26.58 13.6781 26.58H4.38778C3.26112 26.58 2.34778 25.6667 2.34778 24.54Z" fill="#FFC43B"/>
</svg>
